<svg width="603" height="123" viewBox="0 0 603 123" fill="none" xmlns="http://www.w3.org/2000/svg">
<rect width="123" height="123" rx="24" fill="url(#paint0_linear_58_17)"/>
<path d="M226.352 30.64V94H211.76V64.912L212.24 45.424H212.048L196.4 94H183.056L167.408 45.424H167.216L167.696 64.912V94H153.008V30.64H176.528L186.512 62.896L190.064 76.336H190.256L193.904 62.992L203.792 30.64H226.352ZM255.174 94.96C251.91 94.96 249.03 94.416 246.534 93.328C244.102 92.176 242.182 90.352 240.774 87.856C239.366 85.36 238.662 82.096 238.662 78.064V46H254.982V74.224C254.982 77.296 255.59 79.44 256.806 80.656C258.022 81.872 259.75 82.48 261.99 82.48C263.142 82.48 264.23 82.288 265.254 81.904C266.278 81.456 267.174 80.816 267.942 79.984C268.71 79.088 269.286 77.968 269.67 76.624C270.118 75.216 270.342 73.584 270.342 71.728V46H286.662V94H272.07L271.59 84.976C270.054 88.368 267.91 90.896 265.158 92.56C262.406 94.16 259.078 94.96 255.174 94.96ZM314.515 25.648V77.68C314.515 79.792 314.867 81.296 315.571 82.192C316.275 83.088 317.459 83.536 319.123 83.536C320.083 83.536 320.883 83.472 321.523 83.344C322.163 83.216 322.931 83.024 323.827 82.768L322.771 92.56C321.619 93.264 320.115 93.84 318.259 94.288C316.403 94.736 314.579 94.96 312.787 94.96C307.667 94.96 303.955 93.776 301.651 91.408C299.347 89.04 298.195 85.168 298.195 79.792V25.648H314.515ZM348.264 30.736V76.912C348.264 79.216 348.808 80.88 349.896 81.904C351.048 82.864 352.616 83.344 354.6 83.344C356.136 83.344 357.448 83.184 358.536 82.864C359.688 82.48 360.712 81.936 361.608 81.232L363.336 91.312C361.736 92.464 359.72 93.36 357.288 94C354.856 94.64 352.36 94.96 349.8 94.96C346.152 94.96 342.984 94.448 340.296 93.424C337.672 92.4 335.624 90.768 334.152 88.528C332.744 86.288 332.008 83.312 331.944 79.6V35.248L348.264 30.736ZM362.568 46V57.616H323.688V46H362.568ZM378.266 40.432C374.938 40.432 372.506 39.824 370.97 38.608C369.498 37.328 368.762 35.344 368.762 32.656C368.762 29.904 369.498 27.92 370.97 26.704C372.506 25.424 374.938 24.784 378.266 24.784C381.53 24.784 383.93 25.424 385.466 26.704C387.002 27.92 387.77 29.904 387.77 32.656C387.77 35.344 387.002 37.328 385.466 38.608C383.93 39.824 381.53 40.432 378.266 40.432ZM386.426 46V94H370.106V46H386.426ZM482.108 94H465.116L460.7 79.696H439.004L434.492 94H417.884L440.156 30.64H459.932L482.108 94ZM442.076 68.464H457.628L449.852 42.832L442.076 68.464ZM488.325 114.16V46H503.013L503.877 63.376L501.957 61.36C502.405 58.16 503.397 55.344 504.933 52.912C506.469 50.48 508.453 48.56 510.885 47.152C513.317 45.744 516.101 45.04 519.237 45.04C523.205 45.04 526.661 46.032 529.605 48.016C532.549 49.936 534.821 52.752 536.421 56.464C538.085 60.112 538.917 64.56 538.917 69.808C538.917 75.056 538.085 79.568 536.421 83.344C534.757 87.12 532.421 90 529.413 91.984C526.469 93.968 523.013 94.96 519.045 94.96C514.693 94.96 511.173 93.68 508.485 91.12C505.797 88.496 504.005 85.2 503.109 81.232L504.645 78.928V114.16H488.325ZM513.477 82.96C516.293 82.96 518.501 81.936 520.101 79.888C521.701 77.776 522.501 74.48 522.501 70C522.501 65.52 521.701 62.256 520.101 60.208C518.565 58.096 516.389 57.04 513.573 57.04C511.781 57.04 510.213 57.552 508.869 58.576C507.525 59.536 506.469 60.976 505.701 62.896C504.997 64.816 504.645 67.184 504.645 70C504.645 72.688 504.965 75.024 505.605 77.008C506.309 78.928 507.333 80.4 508.677 81.424C510.021 82.448 511.621 82.96 513.477 82.96ZM548.512 114.16V46H563.2L564.064 63.376L562.144 61.36C562.592 58.16 563.584 55.344 565.12 52.912C566.656 50.48 568.64 48.56 571.072 47.152C573.504 45.744 576.288 45.04 579.424 45.04C583.392 45.04 586.848 46.032 589.792 48.016C592.736 49.936 595.008 52.752 596.608 56.464C598.272 60.112 599.104 64.56 599.104 69.808C599.104 75.056 598.272 79.568 596.608 83.344C594.944 87.12 592.608 90 589.6 91.984C586.656 93.968 583.2 94.96 579.232 94.96C574.88 94.96 571.36 93.68 568.672 91.12C565.984 88.496 564.192 85.2 563.296 81.232L564.832 78.928V114.16H548.512ZM573.664 82.96C576.48 82.96 578.688 81.936 580.288 79.888C581.888 77.776 582.688 74.48 582.688 70C582.688 65.52 581.888 62.256 580.288 60.208C578.752 58.096 576.576 57.04 573.76 57.04C571.968 57.04 570.4 57.552 569.056 58.576C567.712 59.536 566.656 60.976 565.888 62.896C565.184 64.816 564.832 67.184 564.832 70C564.832 72.688 565.152 75.024 565.792 77.008C566.496 78.928 567.52 80.4 568.864 81.424C570.208 82.448 571.808 82.96 573.664 82.96Z" fill="black"/>
<path d="M27.5 23.6665V27.4998C27.5 31.3332 35.1667 31.3332 35.1667 35.1665C35.1667 38.9998 27.5 38.9998 27.5 42.8332C27.5 46.6665 35.1667 46.6665 35.1667 50.4998C35.1667 54.3332 27.5 54.3332 27.5 58.1665C27.5 61.9998 35.1667 61.9998 35.1667 65.8332" stroke="white" stroke-width="4" stroke-linecap="round" stroke-linejoin="round"/>
<path d="M85 39H85.037" stroke="white" stroke-width="4" stroke-linecap="round" stroke-linejoin="round"/>
<path d="M39 85H39.037" stroke="white" stroke-width="4" stroke-linecap="round" stroke-linejoin="round"/>
<path d="M95.8484 49.8484C97.273 48.4238 98.4031 46.7325 99.1741 44.8711C99.9451 43.0098 100.342 41.0148 100.342 39.0001C100.342 36.9853 99.9451 34.9904 99.1741 33.129C98.4031 31.2676 97.273 29.5764 95.8484 28.1517C94.4238 26.7271 92.7325 25.597 90.8711 24.826C89.0098 24.055 87.0148 23.6582 85.0001 23.6582C82.9853 23.6582 80.9903 24.055 79.129 24.826C77.2676 25.597 75.5764 26.7271 74.1517 28.1517L28.1517 74.1517C25.2746 77.0289 23.6582 80.9312 23.6582 85.0001C23.6582 87.0148 24.055 89.0098 24.826 90.8711C25.597 92.7325 26.7271 94.4238 28.1517 95.8484C29.5764 97.273 31.2676 98.4031 33.129 99.1741C34.9904 99.9451 36.9853 100.342 39.0001 100.342C43.069 100.342 46.9712 98.7256 49.8484 95.8484L95.8484 49.8484Z" stroke="white" stroke-width="4" stroke-linecap="round" stroke-linejoin="round"/>
<path d="M85 60.6967V100.333C89.0667 100.333 92.9667 98.7179 95.8423 95.8423C98.7179 92.9667 100.333 89.0667 100.333 85V39" stroke="white" stroke-width="4" stroke-linecap="round" stroke-linejoin="round"/>
<defs>
<linearGradient id="paint0_linear_58_17" x1="0" y1="0" x2="123" y2="123" gradientUnits="userSpaceOnUse">
<stop offset="0.122088" stop-color="#D97706"/>
<stop offset="0.530025" stop-color="#0D9488"/>
<stop offset="0.863984" stop-color="#4F46E5"/>
</linearGradient>
</defs>
</svg>
